<?xml version="1.0" encoding="utf-8"?>
<!-- Generator: Adobe Illustrator 18.0.0, SVG Export Plug-In . SVG Version: 6.00 Build 0)  -->
<!DOCTYPE svg PUBLIC "-//W3C//DTD SVG 1.1//EN" "http://www.w3.org/Graphics/SVG/1.1/DTD/svg11.dtd">
<svg version="1.1" id="Capa_1" xmlns="http://www.w3.org/2000/svg" xmlns:xlink="http://www.w3.org/1999/xlink" x="0px" y="0px"
	 viewBox="0 0 595.3 841.9" enable-background="new 0 0 595.3 841.9" xml:space="preserve">
<g id="alumno_1_">
	<g>
		<circle fill="#FFFFFF" cx="297.6" cy="404.9" r="206"/>
		<path fill="#2689A0" d="M332.2,426.3c-6-9.5-2.4-21.4,1.2-28.6c9.5-8.3,15.5-19,20.2-31c1.2,1.2,2.4,2.4,3.6,2.4
			c3.6,0,7.1-8.3,7.1-17.9c0-9.5-3.6-17.9-7.1-17.9l0,0c-2.4-34.5-16.7-61.9-57.1-61.9c-41.7,0-56,26.2-57.1,61.9l0,0
			c-3.6,0-7.1,8.3-7.1,17.9c0,9.5,3.6,17.9,7.1,17.9c1.2,0,2.4-1.2,3.6-2.4c3.6,13.1,10.7,22.6,20.2,31c3.6,8.3,7.1,20.2,1.2,28.6
			c0,0-90.5,32.1-90.5,70.2h246.4C421.5,458.5,332.2,426.3,332.2,426.3z"/>
	</g>
</g>
</svg>
