<?xml version="1.0" encoding="utf-8"?>
<!-- Generator: Adobe Illustrator 18.0.0, SVG Export Plug-In . SVG Version: 6.00 Build 0)  -->
<!DOCTYPE svg PUBLIC "-//W3C//DTD SVG 1.1//EN" "http://www.w3.org/Graphics/SVG/1.1/DTD/svg11.dtd">
<svg version="1.1" id="Capa_1" xmlns="http://www.w3.org/2000/svg" xmlns:xlink="http://www.w3.org/1999/xlink" x="0px" y="0px"
	 viewBox="0 0 37 37" enable-background="new 0 0 37 37" xml:space="preserve">
<g id="anotaciones_1_">
	<g>
		<circle fill="#2689A0" cx="18.5" cy="18.5" r="17.7"/>
		<g>
			<polygon fill="#FFFFFF" points="25.9,28.8 18,24.1 10.2,28.8 10.2,8.1 25.9,8.1 			"/>
			<g>
				<path fill="#2689A0" d="M23.7,17.9c-0.2-0.2-0.2-0.4,0-0.6s0.4-0.2,0.6,0L26,19l3.5-3.5c-0.7-1-1.9-1.6-3.2-1.6
					c-2.2,0-4,1.8-4,4s1.8,4,4,4s4-1.8,4-4c0-0.6-0.1-1.1-0.4-1.6L26,20.2L23.7,17.9z"/>
				<path fill="#FFFFFF" d="M26,19l-1.7-1.7c-0.2-0.2-0.4-0.2-0.6,0s-0.2,0.4,0,0.6l2.3,2.3l3.9-3.9c-0.1-0.3-0.3-0.5-0.4-0.8L26,19
					z"/>
			</g>
		</g>
	</g>
</g>
</svg>
