<?xml version="1.0" encoding="utf-8"?>
<!-- Generator: Adobe Illustrator 18.0.0, SVG Export Plug-In . SVG Version: 6.00 Build 0)  -->
<!DOCTYPE svg PUBLIC "-//W3C//DTD SVG 1.1//EN" "http://www.w3.org/Graphics/SVG/1.1/DTD/svg11.dtd">
<svg version="1.1" id="Capa_1" xmlns="http://www.w3.org/2000/svg" xmlns:xlink="http://www.w3.org/1999/xlink" x="0px" y="0px"
	 viewBox="0 0 37 37" enable-background="new 0 0 37 37" xml:space="preserve">
<g id="asistencia_1_">
	<g>
		<g>
			<circle id="SVGID_2_" fill="#2689A0" cx="18.5" cy="18.5" r="17.7"/>
		</g>
		<g>
			<defs>
				<circle id="SVGID_1_" cx="18.5" cy="18.5" r="17.7"/>
			</defs>
			<clipPath id="SVGID_3_">
				<use xlink:href="#SVGID_1_"  overflow="visible"/>
			</clipPath>
			<g clip-path="url(#SVGID_3_)">
				<g>
					<g>
						<path fill="#FFFFFF" d="M17,24.7c-0.4,0-0.8-0.2-1-0.5L12.8,20c-0.4-0.5-0.3-1.3,0.2-1.7c0.5-0.4,1.3-0.3,1.7,0.2l2.1,2.8
							l5.3-8.5c0.4-0.6,1.1-0.8,1.7-0.4s0.8,1.1,0.4,1.7l-6.2,10C17.9,24.5,17.5,24.7,17,24.7C17.1,24.7,17,24.7,17,24.7z"/>
					</g>
				</g>
				<g>
					<g>
						<path fill="#FFFFFF" d="M23.9,12.4c-0.6-0.4-1.4-0.2-1.7,0.4l-5.3,8.5l-2.1-2.8c-0.4-0.5-1.2-0.7-1.7-0.2
							c-0.5,0.4-0.7,1.2-0.2,1.7l3.2,4.2c0.2,0.3,0.6,0.5,1,0.5c0,0,0,0,0.1,0c0.4,0,0.8-0.2,1-0.6l6.2-10
							C24.7,13.6,24.5,12.8,23.9,12.4z"/>
					</g>
				</g>
			</g>
		</g>
	</g>
</g>
</svg>
