<?xml version="1.0" encoding="utf-8"?>
<!-- Generator: Adobe Illustrator 18.0.0, SVG Export Plug-In . SVG Version: 6.00 Build 0)  -->
<!DOCTYPE svg PUBLIC "-//W3C//DTD SVG 1.1//EN" "http://www.w3.org/Graphics/SVG/1.1/DTD/svg11.dtd">
<svg version="1.1" id="Capa_1" xmlns="http://www.w3.org/2000/svg" xmlns:xlink="http://www.w3.org/1999/xlink" x="0px" y="0px"
	 viewBox="0 0 37 37" enable-background="new 0 0 37 37" xml:space="preserve">
<g id="ayuda_1_">
	<g>
		<path fill="#FFFFFF" d="M18.3,23c-1,0-1.8,0.7-1.9,1.7c0,1.1,0.8,1.8,1.8,1.8"/>
		<path fill="#FFFFFF" d="M23,17.1c0.4-0.6,0.7-1.3,0.7-2.2c0-1.4-0.5-2.5-1.5-3.3c-1-0.7-2.3-1.1-3.9-1.1c-1.2,0-2.1,0.3-2.9,0.8
			c-1.3,0.8-1.9,2.1-2,4.2h3.1c0-0.6,0.2-1.1,0.5-1.6c0.3-0.5,0.9-0.8,1.6-0.8c0.8,0,1.3,0.2,1.6,0.6c0.3,0.4,0.4,0.9,0.4,1.4
			c0,0.4-0.2,0.8-0.5,1.2c-0.1,0.2-0.3,0.4-0.6,0.6c0,0-1.6,1-2.3,1.8c-0.4,0.5-0.4,1.2-0.5,2.2c0,0.1,0,0.2,0.3,0.2s2,0,2.3,0
			c0.3,0,0.3-0.2,0.3-0.2c0-0.4,0.1-0.6,0.1-0.8c0.1-0.4,0.5-0.8,0.9-1.1l0.8-0.6"/>
		<g>
			<g>
				<circle id="SVGID_39_" fill="#FFFFFF" cx="18.5" cy="18.5" r="17.7"/>
			</g>
		</g>
		<path fill="#2689A0" d="M22.2,11.6c-1-0.7-2.3-1.1-3.9-1.1c-1.2,0-2.1,0.3-2.9,0.8c-1.3,0.8-1.9,2.1-2,4.2h3.1
			c0-0.6,0.2-1.1,0.5-1.6s0.9-0.8,1.6-0.8c0.8,0,1.3,0.2,1.6,0.6c0.3,0.4,0.4,0.9,0.4,1.4c0,0.4-0.2,0.8-0.5,1.2
			c-0.1,0.2-0.3,0.4-0.6,0.6c0,0-1.6,1-2.3,1.8c-0.4,0.5-0.4,1.2-0.5,2.2c0,0.1,0,0.2,0.3,0.2s2,0,2.3,0c0.3,0,0.3-0.2,0.3-0.2
			c0-0.4,0.1-0.6,0.1-0.8c0.1-0.4,0.5-0.8,0.9-1.1l0.8-0.6c0.7-0.6,1.3-1,1.6-1.4c0.4-0.6,0.7-1.3,0.7-2.2
			C23.7,13.4,23.2,12.3,22.2,11.6z M18.3,23c-1,0-1.8,0.7-1.9,1.7c0,1.1,0.8,1.8,1.8,1.8c1,0,1.8-0.6,1.9-1.7
			C20.1,23.7,19.4,23,18.3,23z"/>
	</g>
</g>
</svg>
