<?xml version="1.0" encoding="utf-8"?>
<!-- Generator: Adobe Illustrator 18.0.0, SVG Export Plug-In . SVG Version: 6.00 Build 0)  -->
<!DOCTYPE svg PUBLIC "-//W3C//DTD SVG 1.1//EN" "http://www.w3.org/Graphics/SVG/1.1/DTD/svg11.dtd">
<svg version="1.1" id="Capa_1" xmlns="http://www.w3.org/2000/svg" xmlns:xlink="http://www.w3.org/1999/xlink" x="0px" y="0px"
	 viewBox="0 0 37 37" enable-background="new 0 0 37 37" xml:space="preserve">
<g id="biblioteca">
	<g>
		<circle fill="#F05423" cx="18.5" cy="18.5" r="17.7"/>
		<g>
			<g>
				
					<rect x="21.5" y="8.9" transform="matrix(-0.9845 0.1755 -0.1755 -0.9845 50.5541 27.5312)" fill="#FFFFFF" width="5.1" height="14.2"/>
				
					<rect x="22.1" y="12.5" transform="matrix(-0.9845 0.1755 -0.1755 -0.9845 52.2677 33.573)" fill="#FFFFFF" width="5.1" height="13.2"/>
				
					<rect x="22.4" y="14" transform="matrix(-0.9845 0.1753 -0.1753 -0.9845 50.5428 27.6473)" fill="#FFFFFF" width="3.3" height="4.1"/>
				
					<rect x="22.1" y="14" transform="matrix(-0.9845 0.1754 -0.1754 -0.9845 49.6464 24.3241)" fill="#F05423" width="3.3" height="0.7"/>
				
					<rect x="22.9" y="23.7" transform="matrix(-0.9845 0.1753 -0.1753 -0.9845 54.7564 43.4833)" fill="#F05423" width="5.1" height="0.9"/>
				<path fill="#FFFFFF" d="M26,21.7c0.1,0.5-0.2,1-0.7,1.1s-1-0.2-1.1-0.7s0.2-1,0.7-1.1C25.5,20.9,25.9,21.2,26,21.7z"/>
			</g>
			<g>
				<rect x="9.4" y="9.2" fill="#FFFFFF" width="5.1" height="14.2"/>
				<rect x="9.4" y="12.9" fill="#FFFFFF" width="5.1" height="13.2"/>
				<rect x="10.3" y="14.3" fill="#FFFFFF" width="3.3" height="4.1"/>
				<rect x="10.3" y="14.3" fill="#F05423" width="3.3" height="0.7"/>
				<rect x="9.4" y="24.1" fill="#F05423" width="5.1" height="0.9"/>
				<circle fill="#FFFFFF" cx="12" cy="22.3" r="0.9"/>
			</g>
			<g>
				<rect x="15.1" y="9.2" fill="#FFFFFF" width="5.1" height="14.2"/>
				<rect x="15.1" y="12.9" fill="#FFFFFF" width="5.1" height="13.2"/>
				<rect x="16" y="14.3" fill="#FFFFFF" width="3.3" height="4.1"/>
				<rect x="16" y="14.3" fill="#F05423" width="3.3" height="0.7"/>
				<rect x="15.1" y="24.1" fill="#F05423" width="5.1" height="0.9"/>
				<circle fill="#FFFFFF" cx="17.7" cy="22.3" r="0.9"/>
			</g>
		</g>
	</g>
</g>
</svg>
