<?xml version="1.0" encoding="utf-8"?>
<!-- Generator: Adobe Illustrator 18.0.0, SVG Export Plug-In . SVG Version: 6.00 Build 0)  -->
<!DOCTYPE svg PUBLIC "-//W3C//DTD SVG 1.1//EN" "http://www.w3.org/Graphics/SVG/1.1/DTD/svg11.dtd">
<svg version="1.1" id="Capa_1" xmlns="http://www.w3.org/2000/svg" xmlns:xlink="http://www.w3.org/1999/xlink" x="0px" y="0px"
	 viewBox="0 0 37 37" enable-background="new 0 0 37 37" xml:space="preserve">
<g id="chatsoporte_1_">
	<g>
		<circle fill="#FFFFFF" cx="18.5" cy="18.5" r="17.7"/>
		<g>
			<path fill="#2689A0" d="M6.5,15c0-0.9,0.7-1.6,1.6-1.6h12.3c0.9,0,1.6,0.7,1.6,1.6v0.1v7.3c0,0.9-0.7,1.6-1.6,1.6h-6.5h-0.7
				l-1.8,1.9L9.7,24H8.1c-0.9,0-1.6-0.7-1.6-1.6L6.5,15L6.5,15z"/>
			<path fill="#FBAB44" d="M30.5,20.1c0,0.9-0.7,1.6-1.6,1.6h-1.6l-1.6,1.9l-1.8-1.9h-0.7h-6.5c-0.9,0-1.6-0.7-1.6-1.6v-7.2v-0.1
				c0-0.9,0.7-1.6,1.6-1.6H29c0.9,0,1.6,0.7,1.6,1.6L30.5,20.1L30.5,20.1z"/>
		</g>
	</g>
</g>
</svg>
