<?xml version="1.0" encoding="utf-8"?>
<!-- Generator: Adobe Illustrator 18.0.0, SVG Export Plug-In . SVG Version: 6.00 Build 0)  -->
<!DOCTYPE svg PUBLIC "-//W3C//DTD SVG 1.1//EN" "http://www.w3.org/Graphics/SVG/1.1/DTD/svg11.dtd">
<svg version="1.1" id="Capa_1" xmlns="http://www.w3.org/2000/svg" xmlns:xlink="http://www.w3.org/1999/xlink" x="0px" y="0px"
	 viewBox="0 0 37 37" enable-background="new 0 0 37 37" xml:space="preserve">
<g id="comunicaciones">
	<g>
		<g id="Shape_368_copy_12_1_">
			<circle fill="#2689A0" cx="18.5" cy="18.5" r="17.7"/>
		</g>
		<g id="Shape_244">
			<path fill="#FFFFFF" d="M9,21.8l7.6,1L16.5,24c-0.2,0.8,0.3,1.3,1.4,1.4l2.7,0.3c0.8,0,1.2-0.5,1.4-1.5l0.1-0.7l3.4,0.4l1.4-3.7
				l-13.8-9.5c-0.1-0.1-0.2,0-0.2,0.1l-4,10.7C8.8,21.7,8.9,21.8,9,21.8z M17.3,23.9l0.2-1.1l4,0.5l-0.2,0.8
				c-0.1,0.4-0.3,0.7-0.6,0.7l-2.7-0.2C17.5,24.5,17.2,24.3,17.3,23.9z"/>
		</g>
		<g id="Shape_245">
			<path fill="#FFFFFF" d="M7.8,21.9C7.8,21.9,7.9,21.9,7.8,21.9c0.3,0.1,0.5-0.1,0.6-0.3l4.1-11.1c0.1-0.2,0-0.5-0.3-0.6
				c-0.2-0.1-0.5,0-0.6,0.3L7.5,21.2C7.5,21.6,7.6,21.8,7.8,21.9z M27.3,20.5L26,23.9l2.3,0.3c0,0.1,0.1,0.2,0.2,0.2
				c0.1,0.1,0.3,0,0.4-0.2l0.8-2c0.1-0.1,0-0.3-0.1-0.4c-0.1,0-0.2,0-0.2,0l0,0L27.3,20.5z"/>
		</g>
	</g>
</g>
</svg>
