<?xml version="1.0" encoding="utf-8"?>
<!-- Generator: Adobe Illustrator 18.0.0, SVG Export Plug-In . SVG Version: 6.00 Build 0)  -->
<!DOCTYPE svg PUBLIC "-//W3C//DTD SVG 1.1//EN" "http://www.w3.org/Graphics/SVG/1.1/DTD/svg11.dtd">
<svg version="1.1" id="Capa_1" xmlns="http://www.w3.org/2000/svg" xmlns:xlink="http://www.w3.org/1999/xlink" x="0px" y="0px"
	 viewBox="0 0 37 37" enable-background="new 0 0 37 37" xml:space="preserve">
<g id="cuadernos_1_">
	<g>
		<g>
			<g>
				<circle id="SVGID_5_" fill="#2689A0" cx="18.5" cy="18.5" r="17.7"/>
			</g>
		</g>
		<path fill="#FFFFFF" d="M16.5,20.5l-3.6-1.4v1.2l3.6,1.4V20.5z M16.5,16.8l-3.6-1.4v1.2l3.6,1.4V16.8z M26.2,10.6
			c-0.2-0.2-0.6-0.2-0.8-0.1l-6.9,2.7l-6.8-2.7c-0.3-0.1-0.6-0.1-0.8,0.1c-0.2,0.2-0.4,0.4-0.4,0.7v11.4c0,0.4,0.2,0.7,0.6,0.8
			l7.2,2.9c0,0,0.1,0,0.2,0.1c0.1,0,0.1,0,0.2,0c0.1,0,0.1,0,0.2,0l0.2-0.1l7.2-2.9c0.3-0.1,0.6-0.5,0.6-0.8V11.3
			C26.6,11,26.4,10.7,26.2,10.6z M17.6,24.7l-5.7-2.3v-9.9l5.7,2.3L17.6,24.7L17.6,24.7z M25.1,22.4l-5.7,2.3v-9.9l5.7-2.3
			L25.1,22.4L25.1,22.4z M24.1,19.1l-3.6,1.4v1.2l3.6-1.4V19.1z M24.1,15.4l-3.6,1.4V18l3.6-1.4V15.4z"/>
	</g>
</g>
</svg>
