<?xml version="1.0" encoding="utf-8"?>
<!-- Generator: Adobe Illustrator 18.0.0, SVG Export Plug-In . SVG Version: 6.00 Build 0)  -->
<!DOCTYPE svg PUBLIC "-//W3C//DTD SVG 1.1//EN" "http://www.w3.org/Graphics/SVG/1.1/DTD/svg11.dtd">
<svg version="1.1" id="Capa_1" xmlns="http://www.w3.org/2000/svg" xmlns:xlink="http://www.w3.org/1999/xlink" x="0px" y="0px"
	 viewBox="0 0 37 37" enable-background="new 0 0 37 37" xml:space="preserve">
<g>
	<g>
		<circle id="SVGID_1_" fill="#2689A0" cx="18.5" cy="18.5" r="17.7"/>
	</g>
	<g>
		<defs>
			<circle id="SVGID_2_" cx="18.5" cy="18.5" r="17.7"/>
		</defs>
		<clipPath id="SVGID_3_">
			<use xlink:href="#SVGID_2_"  overflow="visible"/>
		</clipPath>
		<g clip-path="url(#SVGID_3_)">
			<g>
				<g>
					<polygon fill="#FFFFFF" points="23.2,15.5 20.2,15.5 20.2,10.9 16.8,10.9 16.8,15.5 13.9,15.5 18.5,19.8 					"/>
				</g>
				<g>
					<path fill="#FFFFFF" d="M26.9,21.2L24,19.3h-1.8l3,2.3h-3.1c-0.1,0-0.2,0-0.2,0.1l-0.7,2h-5.4l-0.7-2c0-0.1-0.1-0.1-0.2-0.1
						h-3.2l3-2.3h-1.8l-2.8,1.9c-0.4,0.3-0.7,0.8-0.6,1.3l0.5,2.8c0.1,0.5,0.6,0.8,1.1,0.8h14.6c0.5,0,1-0.4,1.1-0.8l0.5-2.8
						C27.6,22.1,27.3,21.5,26.9,21.2z"/>
				</g>
			</g>
		</g>
	</g>
</g>
</svg>
