<?xml version="1.0" encoding="utf-8"?>
<!-- Generator: Adobe Illustrator 18.0.0, SVG Export Plug-In . SVG Version: 6.00 Build 0)  -->
<!DOCTYPE svg PUBLIC "-//W3C//DTD SVG 1.1//EN" "http://www.w3.org/Graphics/SVG/1.1/DTD/svg11.dtd">
<svg version="1.1" id="Capa_1" xmlns="http://www.w3.org/2000/svg" xmlns:xlink="http://www.w3.org/1999/xlink" x="0px" y="0px"
	 viewBox="0 0 100 100" enable-background="new 0 0 100 100" xml:space="preserve">
<g>
	<path fill="#FFFFFF" d="M21.3,41.5c7-1.1,13.6-2.1,20.3-3.1c1.1-0.2,2.3-0.4,3.4-0.5c1.6-0.2,3.1-0.7,4.7,0.5
		c1.2,1,3.3,0.1,4.2-1.5c0.8-1.4,0.4-3.5-0.9-4.4c-1.5-1.1-3.6-1-4.6,0.5c-0.8,1.2-1.8,1.3-2.9,1.5c-9.7,1.5-19.4,3-29.2,4.5
		c-1.2,0.2-2.5,0-3.7-0.3c-3-1-6-2.1-9.4-3.3c4.2-1.5,8.1-2.9,12-4.3c11.5-4.1,23-8.2,34.5-12.3c0.7-0.2,1.5-0.3,2.2-0.1
		C67.1,24,82.3,29.4,97.6,34.9c0.2,0.1,0.4,0.2,0.8,0.4c-0.6,0.3-1.1,0.5-1.7,0.7c-14.8,5.3-29.6,10.6-44.5,15.8
		C51.5,52,50.7,52.2,50,52c-9.3-3.3-18.5-6.6-27.8-9.9C22,42,21.8,41.8,21.3,41.5z"/>
	<path fill="#FFFFFF" d="M21.7,45.4c4.9,1.7,9.6,3.4,14.3,5.1c4.5,1.6,8.9,3.3,13.4,4.8c1,0.3,2.2,0.3,3.1,0c8.5-3,17-6,25.4-9
		c0.7-0.2,1.3-0.4,2.2-0.7c0,2.6,0,5,0,7.4c0,3.7-0.1,7.4,0,11.1c0.1,2.5-1,4-2.9,5.2c-3.4,2.3-7.3,3.7-11.3,4.7
		c-6.8,1.8-13.8,2.3-20.7,1.6c-7.2-0.7-14.3-2.2-20.6-6.2c-2.1-1.4-3.2-3.1-3.1-5.7C21.8,57.7,21.7,51.7,21.7,45.4z"/>
	<path fill="#FFFFFF" d="M16,40.5c1.2,0,2.2,0,3.4,0c0,0.7,0,1.3,0,2c0,9.2,0,18.4,0,27.6c0,0.7,0.4,1.6,0.8,2.2
		c1.1,1.5,1.1,3.4-0.1,4.7c-1.3,1.3-3.5,1.3-4.8,0c-1.3-1.3-1.2-3.2-0.1-4.7c0.4-0.6,0.8-1.4,0.8-2.2c0.1-9.2,0-18.4,0-27.6
		C16,41.8,16,41.2,16,40.5z"/>
</g>
</svg>
