<?xml version="1.0" encoding="utf-8"?>
<!-- Generator: Adobe Illustrator 18.1.1, SVG Export Plug-In . SVG Version: 6.00 Build 0)  -->
<svg version="1.1" id="Layer_1" xmlns="http://www.w3.org/2000/svg" xmlns:xlink="http://www.w3.org/1999/xlink" x="0px" y="0px"
	 viewBox="0 0 187.4 45.2" enable-background="new 0 0 187.4 45.2" xml:space="preserve">
<path fill="#38358A" d="M46.4,23.4h-8.5V28c0,1,0.1,1.6,0.2,1.9c0.1,0.3,0.4,0.4,0.8,0.4c0.5,0,0.8-0.2,1-0.6
	c0.2-0.4,0.3-1.1,0.3-2.2v-2.8h6.2v1.6c0,1.3-0.1,2.4-0.3,3.1c-0.2,0.7-0.6,1.5-1.2,2.3c-0.6,0.8-1.4,1.4-2.3,1.8
	c-0.9,0.4-2.1,0.6-3.6,0.6c-1.4,0-2.6-0.2-3.7-0.6c-1.1-0.4-1.9-0.9-2.5-1.6c-0.6-0.7-1-1.5-1.2-2.3c-0.2-0.8-0.3-2.1-0.3-3.7v-6.3
	c0-1.9,0.3-3.4,0.8-4.5c0.5-1.1,1.3-1.9,2.5-2.5c1.2-0.6,2.5-0.9,4-0.9c1.8,0,3.4,0.3,4.6,1c1.2,0.7,2,1.6,2.5,2.8
	c0.5,1.2,0.7,2.8,0.7,4.9V23.4z M39.9,19.9v-1.6c0-1.1-0.1-1.8-0.2-2.2c-0.1-0.3-0.4-0.5-0.7-0.5c-0.5,0-0.7,0.1-0.8,0.4
	c-0.1,0.3-0.2,1-0.2,2.2v1.6H39.9z"/>
<path fill="#38358A" d="M54.3,7.5v6.2c0.5-0.6,1.1-1.1,1.8-1.4c0.7-0.3,1.4-0.5,2.2-0.5c0.9,0,1.7,0.1,2.3,0.4
	c0.7,0.3,1.2,0.7,1.5,1.2c0.3,0.5,0.6,1,0.6,1.5c0.1,0.5,0.1,1.5,0.1,3.1v9.7c0,1.6-0.1,2.8-0.3,3.5c-0.2,0.8-0.7,1.4-1.5,2
	c-0.8,0.6-1.7,0.9-2.8,0.9c-0.8,0-1.5-0.2-2.2-0.5c-0.7-0.3-1.3-0.8-1.8-1.5l-0.4,1.6h-6.1V7.5H54.3z M56.3,18.3
	c0-1.1-0.1-1.8-0.2-2.2c-0.1-0.3-0.4-0.5-0.8-0.5c-0.4,0-0.7,0.1-0.8,0.4c-0.1,0.3-0.2,1-0.2,2.2v9.3c0,1.2,0.1,1.9,0.2,2.2
	c0.1,0.3,0.4,0.5,0.8,0.5c0.4,0,0.7-0.2,0.8-0.5c0.1-0.3,0.2-1.1,0.2-2.4V18.3z"/>
<path fill="#ED2B2E" d="M89.8,7.5v26.7H83V7.5H89.8z"/>
<path fill="#ED2B2E" d="M97.3,20.6h-6.2v-1.4c0-1.7,0.2-3,0.6-3.9c0.4-0.9,1.2-1.7,2.3-2.4c1.2-0.7,2.7-1,4.5-1c2.2,0,3.9,0.4,5,1.2
	c1.1,0.8,1.8,1.7,2,2.9c0.2,1.1,0.3,3.5,0.3,7.1v10.8h-6.4v-1.9c-0.4,0.8-0.9,1.3-1.6,1.7c-0.6,0.4-1.4,0.6-2.3,0.6
	c-1.1,0-2.2-0.3-3.2-1c-1-0.6-1.4-2.1-1.4-4.2v-1.8c0-1.6,0.3-2.7,0.8-3.3c0.5-0.6,1.8-1.3,3.8-2c2.2-0.8,3.3-1.4,3.5-1.7
	c0.2-0.3,0.2-0.9,0.2-1.8c0-1.1-0.1-1.9-0.3-2.2c-0.2-0.3-0.4-0.5-0.8-0.5c-0.4,0-0.7,0.1-0.8,0.4c-0.1,0.3-0.2,1-0.2,2.2V20.6z
	 M99.4,23.5c-1.1,0.8-1.7,1.4-1.8,1.9c-0.2,0.5-0.3,1.3-0.3,2.2c0,1.1,0.1,1.8,0.2,2.2c0.1,0.3,0.4,0.5,0.9,0.5
	c0.4,0,0.7-0.1,0.8-0.4c0.1-0.3,0.2-0.9,0.2-2V23.5z"/>
<path fill="#ED2B2E" d="M120.7,19.1h-5.8v-1.2c0-1-0.1-1.6-0.2-1.9c-0.1-0.3-0.4-0.4-0.9-0.4c-0.4,0-0.6,0.1-0.8,0.4
	c-0.2,0.2-0.3,0.6-0.3,1.1c0,0.7,0,1.1,0.1,1.5c0.1,0.3,0.4,0.6,0.8,1c0.5,0.4,1.4,0.9,2.8,1.6c1.9,0.9,3.2,1.8,3.7,2.6
	c0.6,0.8,0.9,2,0.9,3.6c0,1.8-0.2,3.1-0.7,4c-0.5,0.9-1.2,1.6-2.3,2.1c-1.1,0.5-2.4,0.7-3.9,0.7c-1.7,0-3.1-0.3-4.3-0.8
	c-1.2-0.5-2-1.2-2.4-2.1c-0.4-0.9-0.7-2.2-0.7-4v-1h5.8v1.4c0,1.2,0.1,1.9,0.2,2.3c0.1,0.3,0.4,0.5,0.9,0.5c0.5,0,0.8-0.1,1-0.3
	c0.2-0.2,0.3-0.7,0.3-1.5c0-1-0.1-1.7-0.4-1.9c-0.2-0.3-1.5-1-3.8-2.3c-1.9-1.1-3.1-2.1-3.5-2.9c-0.4-0.9-0.6-1.9-0.6-3.1
	c0-1.7,0.2-3,0.7-3.8c0.5-0.8,1.2-1.4,2.3-1.9c1.1-0.4,2.4-0.7,3.8-0.7c1.4,0,2.6,0.2,3.6,0.5c1,0.4,1.8,0.8,2.3,1.4
	c0.5,0.6,0.9,1.1,1,1.7c0.1,0.5,0.2,1.3,0.2,2.4V19.1z"/>
<path fill="#ED2B2E" d="M136.3,19.1h-5.8v-1.2c0-1-0.1-1.6-0.2-1.9c-0.1-0.3-0.4-0.4-0.9-0.4c-0.4,0-0.6,0.1-0.8,0.4
	c-0.2,0.2-0.3,0.6-0.3,1.1c0,0.7,0,1.1,0.1,1.5c0.1,0.3,0.4,0.6,0.8,1c0.5,0.4,1.4,0.9,2.8,1.6c1.9,0.9,3.2,1.8,3.8,2.6
	c0.6,0.8,0.9,2,0.9,3.6c0,1.8-0.2,3.1-0.7,4c-0.5,0.9-1.2,1.6-2.3,2.1c-1.1,0.5-2.4,0.7-3.9,0.7c-1.7,0-3.1-0.3-4.3-0.8
	c-1.2-0.5-2-1.2-2.4-2.1c-0.4-0.9-0.7-2.2-0.7-4v-1h5.8v1.4c0,1.2,0.1,1.9,0.2,2.3c0.1,0.3,0.4,0.5,0.9,0.5c0.5,0,0.8-0.1,1-0.3
	c0.2-0.2,0.3-0.7,0.3-1.5c0-1-0.1-1.7-0.4-1.9c-0.2-0.3-1.5-1-3.8-2.3c-1.9-1.1-3.1-2.1-3.5-2.9c-0.4-0.9-0.6-1.9-0.6-3.1
	c0-1.7,0.2-3,0.7-3.8c0.5-0.8,1.2-1.4,2.3-1.9c1.1-0.4,2.3-0.7,3.8-0.7c1.4,0,2.6,0.2,3.6,0.5c1,0.4,1.8,0.8,2.3,1.4
	c0.5,0.6,0.9,1.1,1,1.7c0.1,0.5,0.2,1.3,0.2,2.4V19.1z"/>
<path fill="#ED2B2E" d="M81.6,19.1h-6.8v-4.5c0-1.3-0.1-2.1-0.2-2.5c-0.1-0.3-0.5-0.5-1-0.5c-0.6,0-0.9,0.2-1.1,0.6
	c-0.1,0.4-0.2,1.3-0.2,2.6v12.1c0,1.3,0.1,2.1,0.2,2.5c0.2,0.4,0.5,0.6,1,0.6c0.5,0,0.8-0.2,1-0.6c0.2-0.4,0.2-1.3,0.2-2.7v-3.3h6.8
	v1c0,2.7-0.2,4.6-0.6,5.7c-0.4,1.1-1.2,2.1-2.5,3c-1.3,0.8-2.9,1.3-4.8,1.3c-2,0-3.6-0.4-4.9-1.1c-1.3-0.7-2.1-1.7-2.6-3
	c-0.4-1.3-0.6-3.2-0.6-5.7V17c0-1.9,0.1-3.3,0.2-4.2c0.1-0.9,0.5-1.8,1.1-2.7c0.6-0.9,1.5-1.5,2.6-2c1.1-0.5,2.4-0.7,3.9-0.7
	c2,0,3.6,0.4,4.9,1.2c1.3,0.8,2.1,1.7,2.5,2.9c0.4,1.1,0.6,2.9,0.6,5.4V19.1z"/>
<path fill="#262E67" d="M147.4,15.2l16,5.6l17.2-5.6c1.9,0.4,4.7,27.4-16.5,27.4C144.3,42.6,143.1,21.1,147.4,15.2z"/>
<polygon fill="#ED2E39" points="162.8,2.4 184.8,10 162.8,16.7 142.5,9.9 "/>
<polygon fill="#6E6F71" points="142.5,9.9 142.5,11.4 162.8,18.3 162.8,16.7 "/>
<polyline fill="#BBBDBF" points="162.8,16.7 184.8,10 184.8,11.6 162.8,18.3 162.8,16.8 "/>
<path fill="#38358A" d="M31.3,7.5l-3.1,26.6h-8.6c-0.8-4.1-1.5-8.7-2.1-14c-0.3,2.2-0.9,6.9-1.9,14H7L3.9,7.5h6.7l0.7,9.3l0.7,9
	c0.3-4.6,0.9-10.7,1.9-18.3h7.2c0.1,0.8,0.3,3.7,0.8,8.8l0.8,10.1c0.4-6.4,1-12.7,1.9-18.9H31.3z"/>
</svg>
