<?xml version="1.0" encoding="utf-8"?>
<!-- Generator: Adobe Illustrator 18.0.0, SVG Export Plug-In . SVG Version: 6.00 Build 0)  -->
<!DOCTYPE svg PUBLIC "-//W3C//DTD SVG 1.1//EN" "http://www.w3.org/Graphics/SVG/1.1/DTD/svg11.dtd">
<svg version="1.1" id="Capa_1" xmlns="http://www.w3.org/2000/svg" xmlns:xlink="http://www.w3.org/1999/xlink" x="0px" y="0px"
	 viewBox="0 0 37 37" enable-background="new 0 0 37 37" xml:space="preserve">
<g id="misnotas_1_">
	<g>
		<circle fill="#2689A0" cx="18.5" cy="18.5" r="17.7"/>
		<g>
			<g>
				<polygon fill="#FFFFFF" points="13.4,7.7 10.2,10.9 10.2,28.3 26.1,28.3 26.1,7.7 				"/>
				<polygon fill="#1592A3" points="13.4,10.9 13.4,7.7 10.2,10.9 				"/>
			</g>
			<path fill="#2689A0" d="M24.4,22.8c0,0.1-0.1,0.2-0.2,0.2h-12c-0.1,0-0.2-0.1-0.2-0.2l0,0c0-0.1,0.1-0.2,0.2-0.2h12
				C24.3,22.6,24.4,22.7,24.4,22.8L24.4,22.8z"/>
			<path fill="#2689A0" d="M24.4,23.9c0,0.1-0.1,0.2-0.2,0.2h-12c-0.1,0-0.2-0.1-0.2-0.2l0,0c0-0.1,0.1-0.2,0.2-0.2h12
				C24.3,23.7,24.4,23.8,24.4,23.9L24.4,23.9z"/>
			<path fill="#2689A0" d="M24.4,25c0,0.1-0.1,0.2-0.2,0.2h-12c-0.1,0-0.2-0.1-0.2-0.2l0,0c0-0.1,0.1-0.2,0.2-0.2h12
				C24.3,24.8,24.4,24.9,24.4,25L24.4,25z"/>
			<path fill="#2689A0" d="M24.4,26.1c0,0.1-0.1,0.2-0.2,0.2h-12c-0.1,0-0.2-0.1-0.2-0.2l0,0c0-0.1,0.1-0.2,0.2-0.2h12
				C24.3,25.9,24.4,26,24.4,26.1L24.4,26.1z"/>
		</g>
	</g>
	<text transform="matrix(1 0 0 1 12.215 18.3455)" fill="#2689A0" font-family="'OpenSans-Bold'" font-size="8.5851">7,0</text>
</g>
</svg>
