<?xml version="1.0" encoding="utf-8"?>
<!-- Generator: Adobe Illustrator 18.0.0, SVG Export Plug-In . SVG Version: 6.00 Build 0)  -->
<!DOCTYPE svg PUBLIC "-//W3C//DTD SVG 1.1//EN" "http://www.w3.org/Graphics/SVG/1.1/DTD/svg11.dtd">
<svg version="1.1" id="Capa_1" xmlns="http://www.w3.org/2000/svg" xmlns:xlink="http://www.w3.org/1999/xlink" x="0px" y="0px"
	 viewBox="0 0 37 37" enable-background="new 0 0 37 37" xml:space="preserve">
<g id="opciones_1_">
	<g>
		<g>
			<circle id="SVGID_41_" fill="#FFFFFF" cx="18.5" cy="18.5" r="17.7"/>
		</g>
		<g>
			<defs>
				<circle id="SVGID_1_" cx="18.5" cy="18.5" r="17.7"/>
			</defs>
			<clipPath id="SVGID_2_">
				<use xlink:href="#SVGID_1_"  overflow="visible"/>
			</clipPath>
			<g clip-path="url(#SVGID_2_)">
				<g>
					<g>
						<path fill="#FFFFFF" d="M24.5,18.5c0-0.9,0.6-1.6,1.4-2.1c-0.2-0.5-0.4-1-0.6-1.5c-1,0.2-1.7-0.1-2.4-0.8
							c-0.6-0.6-0.8-1.4-0.6-2.4c-0.5-0.2-1-0.5-1.5-0.6c-0.4,0.9-1.3,1.5-2.2,1.5c-0.9,0-1.8-0.6-2.3-1.4c-0.5,0.2-1,0.4-1.5,0.6
							c0.2,1,0.1,1.7-0.6,2.4c-0.6,0.6-1.4,1-2.4,0.8c-0.2,0.5-0.5,1-0.6,1.5c0.9,0.5,1.4,1.2,1.4,2.1c0,0.9-0.6,1.8-1.4,2.3
							c0.2,0.5,0.4,1,0.6,1.5c1-0.2,1.7-0.1,2.4,0.6c0.6,0.6,0.8,1.4,0.6,2.4c0.5,0.2,1,0.5,1.5,0.6c0.5-0.9,1.4-1.4,2.3-1.4
							c0.9,0,1.8,0.6,2.3,1.4c0.5-0.2,1-0.4,1.5-0.6c-0.2-1-0.1-1.7,0.6-2.4c0.6-0.6,1.4-1,2.4-0.8c0.2-0.5,0.5-1,0.6-1.5
							C25.1,20.2,24.5,19.4,24.5,18.5z M18.5,21.8c-1.8,0-3.3-1.4-3.3-3.3c0-1.8,1.4-3.3,3.3-3.3s3.3,1.4,3.3,3.3
							S20.3,21.8,18.5,21.8z"/>
					</g>
				</g>
				<g>
					<g>
						<path fill="#4DAF4F" d="M24.5,18.5c0-0.9,0.6-1.6,1.4-2.1c-0.2-0.5-0.4-1-0.6-1.5c-1,0.2-1.7-0.1-2.4-0.8
							c-0.6-0.6-0.8-1.4-0.6-2.4c-0.5-0.2-1-0.5-1.5-0.6c-0.4,0.9-1.3,1.5-2.2,1.5c-0.9,0-1.8-0.6-2.3-1.4c-0.5,0.2-1,0.4-1.5,0.6
							c0.2,1,0.1,1.7-0.6,2.4c-0.6,0.6-1.4,1-2.4,0.8c-0.2,0.5-0.5,1-0.6,1.5c0.9,0.5,1.4,1.2,1.4,2.1c0,0.9-0.6,1.8-1.4,2.3
							c0.2,0.5,0.4,1,0.6,1.5c1-0.2,1.7-0.1,2.4,0.6c0.6,0.6,0.8,1.4,0.6,2.4c0.5,0.2,1,0.5,1.5,0.6c0.5-0.9,1.4-1.4,2.3-1.4
							c0.9,0,1.8,0.6,2.3,1.4c0.5-0.2,1-0.4,1.5-0.6c-0.2-1-0.1-1.7,0.6-2.4c0.6-0.6,1.4-1,2.4-0.8c0.2-0.5,0.5-1,0.6-1.5
							C25.1,20.2,24.5,19.4,24.5,18.5z M18.5,21.8c-1.8,0-3.3-1.4-3.3-3.3c0-1.8,1.4-3.3,3.3-3.3s3.3,1.4,3.3,3.3
							S20.3,21.8,18.5,21.8z"/>
					</g>
				</g>
			</g>
		</g>
	</g>
</g>
</svg>
