<?xml version="1.0" encoding="utf-8"?>
<!-- Generator: Adobe Illustrator 18.0.0, SVG Export Plug-In . SVG Version: 6.00 Build 0)  -->
<!DOCTYPE svg PUBLIC "-//W3C//DTD SVG 1.1//EN" "http://www.w3.org/Graphics/SVG/1.1/DTD/svg11.dtd">
<svg version="1.1" id="Capa_1" xmlns="http://www.w3.org/2000/svg" xmlns:xlink="http://www.w3.org/1999/xlink" x="0px" y="0px"
	 viewBox="0 0 100 100" enable-background="new 0 0 100 100" xml:space="preserve">
<g>
	<path fill="#2D3079" d="M96.5,37.9c-0.3,0.4-0.5,0.8-0.9,1.1c-7.1,7.1-14.2,14.1-21.2,21.2c-7.2,7.2-14.5,14.4-21.7,21.5
		c-0.2,0.2-0.4,0.3-0.5,0.5c-1.7,2.4-4.3,2.9-6.9,3.6c-11,2.9-22,5.9-33.1,8.8C10.1,95.2,8,95.8,6,96.3c-0.1,0-0.2,0.1-0.3,0.2
		c-0.3,0-0.7,0-1,0c-1.2-0.8-1.3-1.2-1-2.6c3.8-14.1,7.6-28.2,11.5-42.3c0.2-0.6,0.6-1.3,1-1.8c9.3-9.3,18.7-18.6,28-27.9
		C50,16.2,55.8,10.4,61.6,4.6c1.1-1.1,2.4-1.3,3.7-1c2.4,0.5,4.8,1.2,7.2,1.9c1.5,0.4,1.7,1.3,0.6,2.4c-8.1,8-16.1,16-24.2,24.1
		c-4.7,4.6-9.3,9.3-13.9,13.9c-1.9,1.9-3.8,3.7-5.7,5.6c-1.2,1.2-2.7,1.6-4.3,1.2c-1.5-0.4-3-0.8-4.5-1.2c-0.3-0.1-0.8-0.3-1-0.1
		c-0.5,0.4-1,0.9-1.1,1.4c-1.5,5.3-2.9,10.7-4.4,16.1c-0.2,0.9-0.5,1.8-0.7,2.7c-0.1,0.3-0.1,0.6,0.2,0.9c4.8,4.8,9.7,9.6,14.5,14.3
		c0.2,0.2,0.5,0.2,0.7,0.2c6.4-1.7,12.8-3.4,19.2-5.1c1-0.3,1.4-1,1.2-2c-0.4-1.5-0.8-2.9-1.2-4.4c-0.5-1.7-0.1-3.2,1.2-4.5
		c11.4-11.3,22.8-22.7,34.3-34.1c2.9-2.9,5.9-5.8,8.8-8.7c1.1-1.1,2.1-0.9,2.5,0.6c0.6,2.2,1.2,4.3,1.8,6.5c0.2,0.6,0.2,1.2,0.3,1.8
		C96.5,37.4,96.5,37.7,96.5,37.9z"/>
	<path fill="#2D3079" d="M44.3,69.3c-0.2-0.1-0.6-0.2-0.9-0.5c-4-4-8-7.9-12-11.9c-0.7-0.7-0.7-1.5-0.2-2.4c0.2-0.3,0.4-0.6,0.7-0.8
		c8.5-8.5,17.1-17,25.7-25.5c6-6,12-11.9,18-17.9c0.4-0.4,0.8-0.7,1.2-0.9C77.6,9,78.3,9.2,79,9.9c3.9,3.8,7.7,7.7,11.6,11.5
		c1,1,1,2.1,0.1,3.2c-0.7,0.8-1.5,1.5-2.2,2.2C79,36.1,69.5,45.5,60,54.9c-4.5,4.5-9,8.9-13.5,13.4C46,68.9,45.3,69.3,44.3,69.3z"/>
</g>
</svg>
