<?xml version="1.0" encoding="utf-8"?>
<!-- Generator: Adobe Illustrator 18.0.0, SVG Export Plug-In . SVG Version: 6.00 Build 0)  -->
<!DOCTYPE svg PUBLIC "-//W3C//DTD SVG 1.1//EN" "http://www.w3.org/Graphics/SVG/1.1/DTD/svg11.dtd">
<svg version="1.1" id="Capa_1" xmlns="http://www.w3.org/2000/svg" xmlns:xlink="http://www.w3.org/1999/xlink" x="0px" y="0px"
	 viewBox="0 0 50 50" enable-background="new 0 0 50 50" xml:space="preserve">
<g id="salir_1_">
	<g>
		<g>
			<circle id="SVGID_37_" fill="#E63B34" cx="25" cy="25" r="17.7"/>
		</g>
		<g>
			<defs>
				<circle id="SVGID_1_" cx="25" cy="25" r="17.7"/>
			</defs>
			<clipPath id="SVGID_2_">
				<use xlink:href="#SVGID_1_"  overflow="visible"/>
			</clipPath>
			<g clip-path="url(#SVGID_2_)">
				<g>
					<g>
						<path fill="#FFFFFF" d="M26,31.2h-7.2V18.7H26v2.7h1.8v-2.7c0-1-0.8-1.8-1.8-1.8h-7.2c-1,0-1.8,0.8-1.8,1.8v12.5
							c0,1,0.8,1.8,1.8,1.8h7.1c1,0,1.8-0.8,1.8-1.8v-1.8h-1.8v1.8H26z"/>
					</g>
					<g>
						<polygon fill="#FFFFFF" points="33.1,25.4 29.5,21.9 29.5,24.1 21.5,24.1 21.5,26.7 29.5,26.7 29.5,28.9 						"/>
					</g>
				</g>
			</g>
		</g>
	</g>
</g>
</svg>
